<?xml version="1.0" encoding="UTF-8"?>
<svg xmlns="http://www.w3.org/2000/svg" xmlns:xlink="http://www.w3.org/1999/xlink" width="70px" height="81px" viewBox="0 0 70 81" version="1.1">
<g id="surface1">
<path style=" stroke:none;fill-rule:nonzero;fill:rgb(0%,0%,0%);fill-opacity:1;" d="M 56.605469 20.839844 C 56.347656 20.875 55.910156 21.125 55.621094 21.394531 C 55.195312 21.78125 55.113281 22.003906 55.113281 22.609375 C 55.113281 23.621094 55.398438 23.941406 56.839844 24.597656 C 57.519531 24.898438 58.25 25.304688 58.46875 25.488281 C 58.996094 25.960938 58.960938 26.785156 58.402344 27.308594 C 58.046875 27.644531 57.789062 27.714844 56.925781 27.714844 C 56.347656 27.714844 55.671875 27.664062 55.417969 27.578125 C 55.0625 27.496094 54.941406 27.511719 54.941406 27.695312 C 54.941406 27.984375 55.214844 28.082031 56.296875 28.234375 C 57.941406 28.453125 59.265625 27.765625 59.453125 26.601562 C 59.640625 25.40625 59.011719 24.714844 57.179688 24.140625 C 56.6875 23.988281 56.144531 23.71875 55.960938 23.550781 C 55.484375 23.097656 55.519531 22.320312 56.0625 21.78125 C 56.46875 21.378906 56.570312 21.363281 57.839844 21.429688 C 59.164062 21.511719 59.554688 21.363281 58.808594 21.074219 C 58.265625 20.875 57.144531 20.753906 56.605469 20.839844 Z M 56.605469 20.839844 "/>
<path style=" stroke:none;fill-rule:nonzero;fill:rgb(0%,0%,0%);fill-opacity:1;" d="M 10.683594 24.480469 C 10.683594 27.578125 10.71875 28.117188 10.9375 28.203125 C 11.089844 28.253906 11.242188 28.203125 11.292969 28.066406 C 11.34375 27.949219 11.363281 26.515625 11.328125 24.882812 C 11.292969 23.25 11.328125 21.96875 11.378906 22.035156 C 11.429688 22.101562 11.835938 23.046875 12.277344 24.160156 C 13.464844 27.125 13.9375 28.152344 14.140625 28.082031 C 14.246094 28.050781 14.90625 26.585938 15.632812 24.832031 L 16.941406 21.648438 L 16.957031 24.882812 C 16.957031 27.664062 16.992188 28.132812 17.210938 28.132812 C 17.433594 28.132812 17.464844 27.613281 17.464844 24.496094 L 17.464844 20.875 L 17.09375 20.925781 C 16.769531 20.957031 16.515625 21.464844 15.449219 24.039062 C 14.769531 25.742188 14.140625 27.074219 14.058594 27.023438 C 13.972656 26.988281 13.835938 26.652344 13.734375 26.316406 C 13.632812 25.976562 13.125 24.628906 12.582031 23.332031 C 11.699219 21.160156 11.582031 20.972656 11.15625 20.925781 L 10.683594 20.875 Z M 10.683594 24.480469 "/>
<path style=" stroke:none;fill-rule:nonzero;fill:rgb(0%,0%,0%);fill-opacity:1;" d="M 18.652344 21.042969 C 18.652344 21.144531 19.144531 22.101562 19.753906 23.214844 L 20.859375 25.21875 L 20.859375 26.667969 C 20.859375 28.015625 20.890625 28.132812 21.195312 28.132812 C 21.5 28.132812 21.535156 28.015625 21.535156 26.667969 L 21.535156 25.21875 L 22.636719 23.214844 C 23.25 22.101562 23.742188 21.125 23.742188 21.042969 C 23.742188 20.519531 23.199219 21.210938 22.300781 22.878906 C 21.738281 23.921875 21.246094 24.765625 21.195312 24.765625 C 21.144531 24.765625 20.652344 23.890625 20.09375 22.828125 C 19.535156 21.765625 18.976562 20.890625 18.875 20.890625 C 18.753906 20.890625 18.652344 20.957031 18.652344 21.042969 Z M 18.652344 21.042969 "/>
<path style=" stroke:none;fill-rule:nonzero;fill:rgb(0%,0%,0%);fill-opacity:1;" d="M 27.640625 24.496094 L 27.640625 28.132812 L 29.082031 28.132812 C 29.964844 28.132812 30.761719 28.035156 31.117188 27.898438 C 32.675781 27.242188 32.761719 24.898438 31.253906 24.511719 L 30.8125 24.410156 L 31.355469 24.074219 C 32.066406 23.652344 32.304688 23.011719 32.050781 22.203125 C 31.796875 21.292969 31.152344 21.007812 29.21875 20.925781 L 27.640625 20.855469 Z M 30.863281 21.613281 C 31.488281 21.933594 31.746094 22.574219 31.523438 23.230469 C 31.285156 23.921875 30.828125 24.089844 29.234375 24.089844 L 27.980469 24.089844 L 27.980469 22.859375 C 27.980469 22.171875 28.03125 21.5625 28.097656 21.511719 C 28.285156 21.3125 30.421875 21.394531 30.863281 21.613281 Z M 31.253906 24.984375 C 31.640625 25.238281 31.710938 25.386719 31.710938 26.113281 C 31.710938 27.324219 31.253906 27.628906 29.402344 27.628906 L 27.980469 27.628906 L 27.980469 26.230469 C 27.980469 25.457031 28.03125 24.765625 28.117188 24.699219 C 28.351562 24.445312 30.777344 24.664062 31.253906 24.984375 Z M 31.253906 24.984375 "/>
<path style=" stroke:none;fill-rule:nonzero;fill:rgb(0%,0%,0%);fill-opacity:1;" d="M 35.339844 21.125 C 34.679688 21.414062 34 22.289062 33.761719 23.164062 C 32.914062 26.230469 34.847656 28.757812 37.5625 28.152344 C 39.105469 27.8125 40.003906 26.515625 40.019531 24.679688 C 40.019531 22.894531 39.460938 21.714844 38.308594 21.144531 C 37.714844 20.824219 36.035156 20.824219 35.339844 21.125 Z M 37.746094 21.480469 C 39.644531 21.851562 40.1875 25.691406 38.542969 27.125 C 37.628906 27.933594 36.136719 28 35.203125 27.273438 C 34.457031 26.683594 34.1875 25.996094 34.1875 24.597656 C 34.167969 22.675781 34.761719 21.714844 36.171875 21.394531 C 36.457031 21.328125 36.832031 21.292969 36.96875 21.3125 C 37.101562 21.34375 37.457031 21.414062 37.746094 21.480469 Z M 37.746094 21.480469 "/>
<path style=" stroke:none;fill-rule:nonzero;fill:rgb(0%,0%,0%);fill-opacity:1;" d="M 43.070312 21.195312 C 42.105469 21.664062 41.511719 22.675781 41.425781 24.039062 C 41.308594 25.574219 41.597656 26.535156 42.375 27.308594 C 44.003906 28.941406 46.648438 28.386719 47.546875 26.246094 C 47.855469 25.523438 47.90625 23.957031 47.648438 23.046875 C 47.429688 22.304688 46.769531 21.480469 46.105469 21.144531 C 45.445312 20.789062 43.800781 20.824219 43.070312 21.195312 Z M 46.039062 21.714844 C 46.734375 22.101562 47.160156 22.910156 47.261719 24.089844 C 47.496094 26.566406 46.089844 28.117188 43.96875 27.714844 C 42.207031 27.394531 41.324219 24.730469 42.308594 22.691406 C 42.9375 21.363281 44.613281 20.925781 46.039062 21.714844 Z M 46.039062 21.714844 "/>
<path style=" stroke:none;fill-rule:nonzero;fill:rgb(0%,0%,0%);fill-opacity:1;" d="M 49.515625 24.511719 C 49.515625 27.613281 49.550781 28.132812 49.769531 28.132812 C 49.972656 28.132812 50.023438 27.863281 50.023438 26.652344 C 50.023438 25.136719 50.09375 24.949219 50.820312 24.527344 C 50.957031 24.460938 51.515625 25.066406 52.414062 26.28125 C 53.160156 27.292969 53.890625 28.132812 54.027344 28.132812 C 54.160156 28.132812 54.261719 28.101562 54.261719 28.050781 C 54.261719 28 53.652344 27.125 52.90625 26.113281 C 52.160156 25.101562 51.535156 24.210938 51.515625 24.109375 C 51.484375 24.023438 52.09375 23.265625 52.875 22.421875 C 54.90625 20.214844 54.144531 20.503906 51.890625 22.777344 L 50.042969 24.679688 L 50.023438 22.777344 C 50.023438 21.210938 49.972656 20.890625 49.769531 20.890625 C 49.550781 20.890625 49.515625 21.414062 49.515625 24.511719 Z M 49.515625 24.511719 "/>
<path style=" stroke:none;fill-rule:nonzero;fill:rgb(0%,0%,0%);fill-opacity:1;" d="M 21.671875 36.574219 C 21.382812 36.726562 21.367188 37.230469 21.347656 43.179688 C 21.332031 46.714844 21.28125 49.78125 21.230469 49.96875 C 21.164062 50.171875 19.925781 51.332031 18.484375 52.546875 C 17.042969 53.757812 15.871094 54.835938 15.890625 54.921875 C 16.023438 55.394531 17.535156 58.457031 17.652344 58.457031 C 17.753906 58.457031 24.589844 52.847656 37.59375 42.082031 C 38.359375 41.460938 39.085938 40.9375 39.222656 40.9375 C 39.476562 40.9375 45.292969 45.65625 56.636719 55.089844 C 61.792969 59.386719 61.742188 59.351562 62.148438 59.199219 C 62.4375 59.082031 64.4375 56.671875 64.4375 56.4375 C 64.4375 56.371094 64.300781 56.152344 64.148438 55.964844 C 63.453125 55.191406 41.394531 37.113281 40.714844 36.761719 C 39.851562 36.339844 38.746094 36.269531 37.933594 36.625 C 37.628906 36.742188 36.660156 37.449219 35.78125 38.175781 C 30.710938 42.4375 29.386719 43.449219 29.046875 43.464844 C 28.828125 43.464844 28.65625 43.414062 28.65625 43.332031 C 28.65625 43.261719 28.625 41.746094 28.605469 39.960938 C 28.574219 37.28125 28.523438 36.691406 28.320312 36.558594 C 27.980469 36.339844 22.042969 36.355469 21.671875 36.574219 Z M 21.671875 36.574219 "/>
<path style=" stroke:none;fill-rule:nonzero;fill:rgb(0%,0%,0%);fill-opacity:1;" d="M 30.371094 53.167969 L 21.535156 60.515625 L 21.535156 62.738281 C 21.535156 64.238281 21.605469 65.027344 21.738281 65.164062 C 21.890625 65.316406 21.890625 65.367188 21.738281 65.367188 C 21.621094 65.367188 21.535156 65.5 21.535156 65.667969 C 21.535156 66.242188 23.6875 68.011719 27.046875 70.199219 L 30.4375 72.425781 L 32.050781 72.558594 L 33.660156 72.695312 L 31.964844 72.777344 L 30.269531 72.863281 L 32.082031 73.585938 C 33.609375 74.210938 34.015625 74.3125 34.574219 74.210938 C 35.066406 74.125 35.289062 73.992188 35.375 73.738281 C 35.425781 73.535156 35.761719 73.066406 36.121094 72.695312 C 36.476562 72.324219 36.96875 71.683594 37.1875 71.28125 L 37.613281 70.539062 L 37.035156 69.695312 C 36.644531 69.140625 36.457031 68.667969 36.457031 68.265625 C 36.457031 67.808594 36.152344 67.203125 35.085938 65.566406 L 33.695312 63.445312 L 34.101562 63.125 C 34.472656 62.839844 34.523438 62.820312 34.679688 63.089844 C 34.761719 63.242188 35.390625 64.171875 36.035156 65.164062 C 37.1875 66.933594 37.238281 66.964844 37.917969 67.015625 C 38.460938 67.050781 38.664062 67.167969 38.882812 67.554688 C 39.257812 68.179688 39.679688 68.078125 40.613281 67.101562 C 41.242188 66.445312 41.394531 66.375 42.105469 66.375 C 42.835938 66.375 42.988281 66.460938 43.917969 67.304688 C 44.582031 67.910156 45.074219 68.230469 45.359375 68.230469 C 45.769531 68.230469 45.785156 68.195312 45.785156 67.035156 C 45.785156 65.9375 45.835938 65.789062 46.292969 65.25 C 46.820312 64.660156 46.953125 63.933594 46.632812 63.328125 C 46.464844 63.023438 46.445312 63.023438 45.820312 63.34375 C 45.480469 63.53125 45.074219 63.679688 44.902344 63.679688 C 44.632812 63.679688 43.917969 62.855469 43.917969 62.535156 C 43.917969 62.433594 43.75 62.332031 43.546875 62.300781 C 43.242188 62.265625 43.140625 62.132812 43.105469 61.644531 C 43.070312 61.203125 42.886719 60.867188 42.460938 60.464844 C 42.15625 60.160156 41.882812 59.789062 41.882812 59.636719 C 41.882812 59.503906 41.78125 59.234375 41.648438 59.046875 C 41.308594 58.542969 41.1875 57.582031 41.425781 57.160156 C 41.648438 56.757812 43.582031 55.191406 44.292969 54.820312 C 44.972656 54.464844 45.785156 54.535156 46.851562 55.003906 C 47.683594 55.359375 47.871094 55.542969 48.261719 56.300781 C 48.667969 57.09375 48.71875 57.363281 48.703125 58.710938 C 48.683594 59.535156 48.652344 60.445312 48.632812 60.734375 C 48.582031 61.59375 48.804688 62.164062 49.191406 62.164062 C 49.769531 62.164062 50.617188 62.636719 50.921875 63.140625 C 51.515625 64.101562 51.464844 64.070312 51.90625 63.800781 C 52.125 63.648438 52.992188 63.34375 53.804688 63.109375 C 54.773438 62.839844 55.585938 62.46875 56.144531 62.082031 C 57.65625 60.96875 58.078125 61.457031 48.480469 53.472656 C 43.800781 49.597656 39.816406 46.277344 39.59375 46.125 C 39.222656 45.824219 39.171875 45.855469 30.371094 53.167969 Z M 30.371094 53.167969 "/>
<path style=" stroke:none;fill-rule:nonzero;fill:rgb(0%,0%,0%);fill-opacity:1;" d="M 56.585938 62.992188 C 56.164062 63.699219 54.855469 65.316406 53.890625 66.308594 L 53.042969 67.167969 L 53.261719 67.875 C 53.382812 68.246094 53.515625 68.566406 53.566406 68.566406 C 53.753906 68.566406 53.839844 69.796875 53.839844 72.273438 C 53.824219 74.378906 53.773438 74.835938 53.449219 75.644531 C 53.246094 76.148438 53.078125 76.585938 53.078125 76.601562 C 53.078125 76.636719 53.738281 76.652344 54.535156 76.652344 C 55.910156 76.652344 56.011719 76.636719 56.484375 76.164062 L 56.976562 75.675781 L 56.976562 69.089844 C 56.976562 65.46875 56.960938 62.503906 56.925781 62.503906 C 56.910156 62.503906 56.757812 62.722656 56.585938 62.992188 Z M 56.585938 62.992188 "/>
<path style=" stroke:none;fill-rule:nonzero;fill:rgb(0%,0%,0%);fill-opacity:1;" d="M 21.535156 74.53125 C 21.535156 75.644531 21.585938 75.8125 21.976562 76.214844 L 22.433594 76.652344 L 26.894531 76.652344 C 29.4375 76.652344 31.386719 76.585938 31.457031 76.5 C 31.507812 76.417969 31.101562 76.25 30.574219 76.148438 C 28.863281 75.792969 24.453125 74.480469 22.976562 73.890625 L 21.535156 73.316406 Z M 21.535156 74.53125 "/>
<path style=" stroke:none;fill-rule:nonzero;fill:rgb(0%,0%,0%);fill-opacity:1;" d="M 30.574219 74.765625 C 29.710938 74.917969 28.996094 75.085938 28.996094 75.136719 C 28.996094 75.203125 29.660156 75.507812 30.457031 75.828125 L 31.929688 76.382812 L 33.558594 75.558594 L 35.1875 74.714844 L 34.339844 74.597656 C 33.101562 74.445312 32.320312 74.480469 30.574219 74.765625 Z M 30.574219 74.765625 "/>
</g>
</svg>
